<?xml version="1.0" encoding="utf-8"?>
<!-- Generator: Adobe Illustrator 16.0.0, SVG Export Plug-In . SVG Version: 6.00 Build 0)  -->
<!DOCTYPE svg PUBLIC "-//W3C//DTD SVG 1.1//EN" "http://www.w3.org/Graphics/SVG/1.1/DTD/svg11.dtd">
<svg version="1.1" id="Layer_1" xmlns="http://www.w3.org/2000/svg" xmlns:xlink="http://www.w3.org/1999/xlink" x="0px" y="0px"
	 width="612px" height="792px" viewBox="0 0 612 792" style="enable-background:new 0 0 612 792;" xml:space="preserve">
<title>Artboard 6</title>
<path d="M520.2,677.52L377.757,579.6H91.8V151.2h428.4V677.52z M122.4,549h264.843L489.6,619.38V181.8H122.4V549z M305.572,489.789
	c-10.985,0-19.89-8.905-19.89-19.89c0-10.985,8.905-19.891,19.89-19.891c10.985,0,19.89,8.905,19.89,19.891l0,0
	C325.462,480.884,316.557,489.789,305.572,489.789L305.572,489.789z M321.3,413.289h-30.6c0.75-21.691,13.415-41.195,32.926-50.704
	c18.075-8.396,29.257-26.912,28.274-46.818c-1.7-23.71-22.174-41.631-45.9-40.178c-23.727-1.453-44.2,16.468-45.9,40.178h-30.6
	c1.674-40.626,35.866-72.261,76.5-70.777c40.634-1.483,74.826,30.151,76.5,70.777c1.064,29.999-15.08,57.975-41.585,72.063
	C327.42,397.132,321.3,401.723,321.3,413.289L321.3,413.289z"/>
</svg>
