<?xml version="1.0" encoding="utf-8"?>
<!-- Generator: Adobe Illustrator 16.0.0, SVG Export Plug-In . SVG Version: 6.00 Build 0)  -->
<!DOCTYPE svg PUBLIC "-//W3C//DTD SVG 1.1//EN" "http://www.w3.org/Graphics/SVG/1.1/DTD/svg11.dtd">
<svg version="1.1" id="Layer_1" xmlns="http://www.w3.org/2000/svg" xmlns:xlink="http://www.w3.org/1999/xlink" x="0px" y="0px"
	 width="612px" height="792px" viewBox="0 0 612 792" style="enable-background:new 0 0 612 792;" xml:space="preserve">
<title>Artboard 5</title>
<path d="M306,640.8c-31.871,0.056-63.109-6.124-92.083-17.862c-30.047-12.174-57.66-30.328-81.021-53.711l0,0
	c-95.455-95.664-95.455-250.544,0-346.208l0,0c95.535-95.666,250.534-95.771,346.2-0.236
	c95.665,95.536,95.771,250.534,0.235,346.199c-24.565,24.599-53.823,43.432-85.67,55.629C365.941,635.227,336.259,640.814,306,640.8
	z M165.729,557.904c19.709,17.023,41.743,29.881,64.963,38.576c24.24,9.076,49.774,13.613,75.308,13.613
	c24.973,0,49.944-4.34,73.705-13.021c23.809-8.698,46.403-21.754,66.565-39.168l-65.209-65.178
	c-44.497,33.313-105.626,33.313-150.124,0L165.729,557.904z M402.696,471.093l65.208,65.178c69.595-80.554,69.595-199.957,0-280.51
	l-65.208,65.178C437.002,365.111,437.002,426.92,402.696,471.093z M144.095,255.729c-69.595,80.554-69.595,199.957,0,280.511
	l65.209-65.179c-34.306-44.173-34.306-105.981,0-150.154L144.095,255.729z M306,304.2c-24.354-0.074-47.726,9.601-64.903,26.867l0,0
	c-35.853,35.847-35.858,93.971-0.011,129.825c0.003,0.004,0.007,0.007,0.011,0.011c36.331,34.653,93.475,34.653,129.805,0
	c35.845-35.855,35.836-93.98-0.02-129.825C353.673,313.873,330.335,304.205,306,304.2z M306,273.6
	c27.189-0.088,53.621,8.953,75.062,25.673l65.209-65.178c-80.568-69.586-199.973-69.586-280.541,0l65.208,65.178
	C252.378,282.553,278.811,273.512,306,273.6z"/>
</svg>
